<svg data-v-423bf9ae="" xmlns="http://www.w3.org/2000/svg" viewBox="0 0 169.47281686554913 60" class="font"><!----><!----><!----><g data-v-423bf9ae="" id="81302b3e-3b97-4809-9370-a891caeef909" fill="white" transform="matrix(4.942339234199546,0,0,4.942339234199546,-6.425044067363828,-9.192751165521173)"><path d="M6.97 10.26L3.78 5.99L6.90 1.86L4.45 1.86L4.45 2.17L5.50 2.52L2.09 7.10L2.09 1.86L1.30 1.86L1.30 10.26L2.09 10.26L2.09 8.26L3.33 6.61L5.99 10.26ZM13.72 10.26L13.72 9.56C13.52 9.63 13.30 9.70 13.06 9.70C12.74 9.70 12.60 9.52 12.60 9.23L12.60 5.96C12.60 4.41 11.66 3.58 9.98 3.58C9.48 3.58 8.79 3.71 8.20 3.89L8.20 5.46L8.51 5.46L8.86 4.42C9.25 4.34 9.66 4.28 9.98 4.28C11.24 4.28 11.83 4.82 11.83 5.96L11.83 6.55L9.81 6.55C8.26 6.55 7.53 7.32 7.53 8.34C7.53 9.53 8.47 10.40 10.26 10.40C10.91 10.40 11.54 10.26 12.07 10.04C12.25 10.28 12.57 10.40 12.85 10.40C13.17 10.40 13.48 10.33 13.72 10.26ZM11.83 9.41C11.37 9.59 10.84 9.72 10.26 9.72C8.96 9.72 8.32 9.18 8.32 8.34C8.32 7.67 8.75 7.22 9.81 7.22L11.83 7.22ZM20.80 7C20.80 4.79 19.60 3.58 17.82 3.58C17.11 3.58 16.14 3.78 15.43 3.98L15.23 4.03L15.48 4.80L15.48 14L16.25 14L16.25 10.16C16.72 10.32 17.33 10.40 17.82 10.40C19.60 10.40 20.80 9.20 20.80 7ZM20.02 7C20.02 8.76 19.14 9.70 17.82 9.70C17.30 9.70 16.77 9.62 16.25 9.48L16.25 4.51C16.77 4.37 17.30 4.28 17.82 4.28C19.14 4.28 20.02 5.22 20.02 7ZM28.08 7C28.08 4.79 26.88 3.58 25.10 3.58C24.39 3.58 23.42 3.78 22.71 3.98L22.51 4.03L22.76 4.80L22.76 14L23.53 14L23.53 10.16C24.00 10.32 24.61 10.40 25.10 10.40C26.88 10.40 28.08 9.20 28.08 7ZM27.30 7C27.30 8.76 26.42 9.70 25.10 9.70C24.58 9.70 24.05 9.62 23.53 9.48L23.53 4.51C24.05 4.37 24.58 4.28 25.10 4.28C26.42 4.28 27.30 5.22 27.30 7ZM35.59 10.26L35.59 9.56C35.39 9.63 35.17 9.70 34.93 9.70C34.61 9.70 34.47 9.52 34.47 9.23L34.47 5.96C34.47 4.41 33.53 3.58 31.85 3.58C31.35 3.58 30.66 3.71 30.07 3.89L30.07 5.46L30.38 5.46L30.73 4.42C31.12 4.34 31.53 4.28 31.85 4.28C33.11 4.28 33.70 4.82 33.70 5.96L33.70 6.55L31.68 6.55C30.13 6.55 29.40 7.32 29.40 8.34C29.40 9.53 30.34 10.40 32.13 10.40C32.77 10.40 33.40 10.26 33.94 10.04C34.12 10.28 34.44 10.40 34.72 10.40C35.04 10.40 35.35 10.33 35.59 10.26ZM33.70 9.41C33.24 9.59 32.70 9.72 32.13 9.72C30.83 9.72 30.18 9.18 30.18 8.34C30.18 7.67 30.62 7.22 31.68 7.22L33.70 7.22Z"></path></g><!----><!----></svg>